<svg width="163" height="69" viewBox="0 0 163 69" fill="none" xmlns="http://www.w3.org/2000/svg">
<path d="M4.19181 20.3636C2.5283 20.4011 1.27198 18.866 1.63769 17.2428L2.50436 13.396C2.80458 12.0634 3.57818 10.8851 4.68151 10.0798L9.71397 6.40662C11.3349 5.22352 13.2743 4.55546 15.28 4.48933L148.032 0.112137C150.235 0.039501 152.4 0.696705 154.191 1.98158L154.606 2.27907C156.927 3.94471 158.426 6.52388 158.722 9.36572L162.451 45.0813C162.795 48.3684 161.492 51.6128 158.97 53.7493L157.959 54.6062C156.305 56.0074 155.151 57.908 154.671 60.0218L154.561 60.5081C153.532 65.0424 149.513 68.2689 144.863 68.294L18.0779 68.9788C15.5375 68.9925 13.0872 68.0389 11.2244 66.3116L4.14154 59.7438C1.57133 57.3604 0.43658 53.8054 1.15069 50.3738L6.75484 23.4433C7.09031 21.8312 5.83802 20.3264 4.19181 20.3636Z" fill="#DC0000"/>
</svg>
